<?xml version="1.0" standalone="no"?>
<!DOCTYPE svg PUBLIC "-//W3C//DTD SVG 20010904//EN"
 "http://www.w3.org/TR/2001/REC-SVG-20010904/DTD/svg10.dtd">
<svg version="1.0" xmlns="http://www.w3.org/2000/svg"
 width="1536.000000pt" height="609.000000pt" viewBox="0 0 1536.000000 609.000000"
 preserveAspectRatio="xMidYMid meet">
<metadata>
Created by potrace 1.16, written by Peter Selinger 2001-2019
</metadata>
<g transform="translate(0.000000,609.000000) scale(0.100000,-0.100000)"
fill="#000000" stroke="none">
<path d="M7650 6058 c-11 -18 -20 -37 -20 -43 0 -5 -37 -44 -82 -85 -87 -80
-165 -188 -196 -273 -10 -29 -47 -129 -82 -224 l-63 -172 -76 -8 c-42 -4 -166
-8 -276 -7 -227 1 -288 10 -562 90 -390 113 -669 247 -887 427 -91 75 -257
177 -345 213 -203 82 -432 100 -746 58 -125 -17 -622 -108 -705 -129 -30 -8
-161 -33 -290 -55 -551 -95 -963 -207 -1445 -391 -137 -52 -618 -286 -804
-391 -107 -60 -124 -79 -99 -105 13 -13 40 -18 109 -21 50 -3 87 -8 82 -13 -4
-4 -109 -60 -233 -124 -231 -119 -478 -275 -604 -382 -91 -76 -97 -87 -68
-115 21 -22 30 -23 150 -22 70 1 153 6 184 11 32 6 55 6 53 2 -3 -4 -51 -40
-108 -80 -56 -40 -176 -129 -267 -198 -91 -69 -189 -143 -217 -164 -59 -44
-69 -78 -31 -98 40 -21 213 -5 320 31 111 37 331 132 483 207 61 30 103 48 95
40 -8 -8 -79 -62 -158 -121 -210 -157 -364 -289 -475 -405 -99 -105 -119 -139
-97 -166 17 -20 51 -19 137 5 152 42 351 137 533 256 150 97 262 163 385 229
l110 58 -246 -249 c-228 -231 -428 -463 -476 -551 -52 -97 77 -93 282 9 156
78 284 171 453 330 102 95 251 218 265 218 5 0 -2 -15 -16 -32 -115 -143 -244
-321 -262 -361 -26 -55 -23 -81 12 -104 20 -13 32 -14 81 -4 146 29 198 57
427 237 l82 64 19 -22 c44 -50 160 -76 254 -58 68 13 168 59 222 102 l40 32
48 -27 c96 -54 187 -44 349 37 l90 46 68 -26 c93 -35 158 -30 249 21 l67 38
76 -18 c92 -22 156 -23 238 -1 l62 16 64 -35 c80 -44 169 -75 216 -75 20 0 50
-9 68 -19 17 -11 68 -31 114 -46 49 -15 96 -37 116 -55 51 -45 88 -61 163 -69
50 -5 79 -14 109 -35 53 -37 106 -55 164 -56 54 0 77 -10 125 -51 49 -43 127
-79 196 -91 39 -6 76 -20 103 -39 73 -51 122 -69 196 -69 60 0 74 -4 113 -31
73 -50 111 -62 204 -62 70 0 94 -4 133 -24 64 -32 122 -38 176 -19 39 14 46
14 60 1 9 -8 39 -25 66 -37 45 -21 65 -23 185 -22 74 0 165 6 201 13 57 11 73
10 119 -3 31 -9 86 -16 130 -15 68 1 82 -2 140 -34 36 -19 76 -37 90 -41 20
-4 33 -21 57 -73 18 -37 35 -78 38 -90 9 -32 -9 -150 -70 -468 -30 -154 -68
-364 -84 -466 -17 -102 -39 -226 -50 -275 -25 -112 -144 -509 -215 -719 -61
-178 -81 -308 -75 -469 5 -116 10 -119 144 -113 55 3 119 12 143 21 32 11 49
13 69 5 34 -13 121 5 188 38 40 20 59 24 95 19 46 -6 147 20 185 48 15 11 27
10 76 -7 56 -19 60 -19 106 -2 76 27 98 28 134 9 43 -22 114 -23 156 -1 30 16
35 16 56 2 48 -31 139 -55 186 -49 37 5 56 1 96 -19 67 -33 154 -51 188 -38
20 8 37 6 69 -5 24 -9 88 -18 143 -21 144 -7 140 -11 140 169 -1 173 -15 259
-67 403 -52 147 -194 617 -219 729 -11 49 -33 173 -50 275 -16 102 -57 324
-89 493 -33 169 -61 341 -62 382 -2 67 1 82 32 146 26 54 40 72 60 77 14 3 55
21 93 41 60 31 75 34 139 33 40 -1 95 6 127 15 47 13 64 14 120 3 36 -7 127
-13 201 -13 120 -1 140 1 185 22 27 12 57 29 66 37 14 13 21 13 60 -1 54 -19
112 -13 176 19 39 20 63 24 133 24 93 0 131 12 204 62 39 27 53 31 113 31 74
0 123 18 196 69 27 19 64 33 103 39 72 12 143 46 203 96 46 39 56 42 142 50
59 5 109 25 146 58 15 14 44 23 97 28 81 10 118 24 169 70 20 18 67 40 116 55
46 15 97 35 114 46 18 10 48 19 68 19 47 0 136 31 216 75 l64 35 62 -16 c82
-22 146 -21 238 1 l76 18 67 -38 c91 -51 156 -56 249 -21 l68 26 90 -46 c162
-81 253 -91 349 -37 l48 27 39 -32 c94 -74 228 -119 322 -107 66 8 128 34 155
63 l18 21 97 -75 c177 -139 218 -165 303 -194 118 -39 163 -46 193 -26 60 39
24 114 -179 371 -43 55 -83 106 -89 113 -5 6 -5 12 0 12 15 0 143 -106 278
-231 167 -154 279 -234 440 -314 182 -90 282 -108 293 -51 9 46 -198 297 -487
590 l-246 249 110 -58 c123 -66 235 -132 385 -229 182 -119 381 -214 533 -256
86 -24 120 -25 137 -5 22 27 1 62 -102 170 -118 124 -229 219 -453 387 -88 67
-167 127 -175 135 -8 8 59 -22 150 -65 175 -84 379 -169 470 -196 73 -22 249
-33 278 -17 43 23 28 53 -60 121 -172 132 -376 285 -465 347 -51 35 -95 68
-97 72 -3 4 16 4 42 0 100 -17 296 -21 321 -7 52 28 51 45 -9 101 -125 117
-384 282 -695 443 l-190 99 85 5 c117 8 158 34 113 72 -54 45 -633 340 -812
413 -476 194 -970 331 -1534 425 -100 17 -229 42 -287 55 -131 30 -623 119
-750 136 -140 19 -386 16 -493 -5 -190 -37 -375 -129 -560 -279 -174 -141
-346 -234 -620 -337 -148 -55 -442 -139 -567 -161 -84 -15 -409 -19 -531 -6
l-76 8 -63 172 c-35 95 -72 196 -83 225 -28 80 -109 192 -190 267 -39 37 -83
88 -97 113 -14 25 -30 47 -37 50 -7 2 -22 -11 -33 -30z"/>
</g>
</svg>
