<?xml version="1.0" standalone="no"?>
<!DOCTYPE svg PUBLIC "-//W3C//DTD SVG 20010904//EN"
 "http://www.w3.org/TR/2001/REC-SVG-20010904/DTD/svg10.dtd">
<svg version="1.0" xmlns="http://www.w3.org/2000/svg"
 width="1536.000000pt" height="681.000000pt" viewBox="0 0 1536.000000 681.000000"
 preserveAspectRatio="xMidYMid meet">
<metadata>
Created by potrace 1.16, written by Peter Selinger 2001-2019
</metadata>
<g transform="translate(0.000000,681.000000) scale(0.100000,-0.100000)"
fill="#000000" stroke="none">
<path d="M7642 6786 c-10 -14 -27 -45 -36 -70 -10 -25 -21 -46 -26 -46 -17 0
-113 -96 -154 -154 -68 -96 -94 -156 -132 -308 -31 -125 -44 -158 -112 -284
-42 -79 -98 -183 -124 -233 l-48 -89 -65 -7 c-133 -15 -359 0 -525 34 -409 83
-659 175 -1165 424 -252 124 -320 152 -442 176 -259 52 -456 52 -908 2 -154
-17 -383 -43 -510 -56 -586 -64 -917 -130 -1265 -250 -279 -97 -700 -378 -700
-467 0 -12 12 -24 32 -32 l32 -14 -155 -77 c-447 -223 -638 -346 -848 -540
-45 -43 -53 -55 -48 -76 12 -47 61 -72 156 -78 l86 -6 -75 -41 c-120 -67 -305
-204 -441 -328 -175 -159 -196 -193 -139 -224 31 -16 280 -9 378 12 34 7 62
12 62 10 0 -1 -36 -23 -79 -48 -95 -55 -149 -100 -254 -215 -90 -97 -117 -136
-117 -168 0 -35 30 -43 170 -43 152 0 185 9 360 95 62 30 115 53 118 50 3 -2
-75 -82 -172 -177 -144 -141 -176 -178 -176 -200 0 -44 35 -59 132 -59 108 0
302 34 383 66 l63 26 61 -21 c81 -27 100 -26 243 17 175 52 179 52 211 10 14
-19 41 -42 60 -51 70 -33 232 -14 399 47 l67 24 58 -59 c73 -75 123 -102 172
-94 20 3 84 21 143 39 l107 34 23 -24 c12 -13 43 -37 67 -54 38 -25 54 -29
110 -28 54 0 87 9 185 48 l119 47 92 -47 c124 -63 164 -69 264 -35 l77 26 62
-25 c34 -14 67 -25 74 -25 7 0 62 -25 123 -55 88 -43 126 -57 188 -65 53 -7
109 -23 175 -52 97 -43 97 -43 207 -41 97 2 126 -1 251 -33 l141 -35 67 15
c84 20 127 20 190 1 63 -19 157 -19 202 0 33 14 37 13 80 -15 26 -16 85 -43
133 -60 79 -29 93 -32 176 -27 88 5 90 4 142 -29 135 -86 183 -98 281 -69 48
15 53 14 89 -5 43 -23 85 -25 201 -9 73 10 87 9 142 -10 76 -26 180 -28 221
-4 24 14 34 15 62 5 52 -19 96 -14 144 14 l44 25 65 -63 c36 -35 77 -85 91
-113 14 -27 34 -61 45 -76 l21 -27 -27 -179 c-15 -98 -70 -443 -121 -768 -170
-1068 -169 -1052 -143 -1139 7 -23 30 -59 54 -82 34 -35 50 -43 95 -49 57 -8
181 -75 269 -146 58 -47 75 -55 135 -67 28 -6 77 -22 110 -36 73 -31 175 -35
271 -9 60 16 68 16 128 0 96 -26 198 -22 271 9 33 14 82 30 110 36 60 12 77
20 135 67 88 71 212 138 269 146 45 6 61 14 95 49 24 23 47 59 54 82 25 86 29
62 -143 1139 -51 325 -106 670 -121 768 l-27 179 21 27 c11 15 31 49 45 76 14
28 55 78 91 113 l65 63 44 -25 c48 -28 92 -33 144 -14 28 10 38 9 62 -5 41
-24 145 -22 222 4 55 19 68 20 135 10 110 -16 164 -14 207 9 36 19 41 20 89 5
98 -29 135 -20 272 63 58 36 60 37 170 37 105 0 115 2 193 36 45 20 95 46 111
58 28 19 32 20 66 6 45 -19 139 -19 202 0 63 19 106 19 190 -1 l67 -15 141 35
c125 32 154 35 251 33 110 -2 110 -2 207 41 66 29 122 45 175 52 62 8 100 22
188 65 61 30 116 55 123 55 7 0 40 11 74 25 l62 25 79 -26 c100 -33 139 -28
262 35 l92 47 119 -47 c98 -39 131 -48 185 -48 56 -1 72 3 110 28 24 17 55 41
67 54 l23 24 107 -34 c59 -18 123 -36 143 -39 49 -8 99 19 172 94 l58 59 67
-24 c167 -61 329 -80 399 -47 19 9 46 32 60 51 32 42 36 42 211 -10 143 -43
162 -44 243 -17 l61 21 63 -26 c81 -32 275 -66 383 -66 97 0 132 15 132 59 0
22 -32 59 -176 200 -97 95 -174 175 -172 178 3 2 56 -21 118 -51 175 -86 208
-95 360 -95 140 0 170 8 170 43 0 32 -27 71 -121 173 -104 113 -152 154 -251
212 -43 24 -78 46 -78 47 0 1 28 -4 63 -11 34 -8 127 -16 207 -19 157 -7 192
1 198 41 9 60 -382 393 -608 518 l-75 41 86 6 c94 6 144 31 156 77 7 30 -25
64 -167 179 -197 158 -325 235 -710 428 l-174 87 32 14 c61 25 32 77 -99 180
-409 320 -880 466 -1834 569 -132 14 -364 40 -515 56 -447 50 -645 50 -903 -2
-119 -24 -199 -55 -398 -154 -516 -259 -794 -361 -1209 -446 -166 -34 -392
-49 -525 -34 l-65 7 -48 89 c-26 50 -82 154 -124 233 -68 126 -81 159 -112
284 -38 152 -64 212 -132 308 -41 58 -137 154 -154 154 -5 0 -16 21 -26 46
-22 58 -50 94 -74 94 -10 0 -27 -11 -38 -24z"/>
</g>
</svg>
