<?xml version="1.0" standalone="no"?>
<!DOCTYPE svg PUBLIC "-//W3C//DTD SVG 20010904//EN"
 "http://www.w3.org/TR/2001/REC-SVG-20010904/DTD/svg10.dtd">
<svg version="1.0" xmlns="http://www.w3.org/2000/svg"
 width="1536.000000pt" height="709.000000pt" viewBox="0 0 1536.000000 709.000000"
 preserveAspectRatio="xMidYMid meet">
<metadata>
Created by potrace 1.16, written by Peter Selinger 2001-2019
</metadata>
<g transform="translate(0.000000,709.000000) scale(0.100000,-0.100000)"
fill="#000000" stroke="none">
<path d="M7658 7073 c-9 -10 -32 -49 -51 -88 -22 -44 -46 -76 -64 -87 -44 -25
-149 -132 -187 -190 -49 -74 -80 -162 -111 -317 -33 -172 -50 -217 -132 -369
-65 -120 -70 -126 -118 -148 -100 -46 -200 -66 -366 -71 -187 -6 -266 3 -522
62 -277 64 -328 79 -572 170 -308 115 -517 182 -632 202 -125 22 -554 25 -683
5 -115 -18 -240 -61 -380 -131 -78 -39 -152 -67 -221 -85 -150 -37 -359 -105
-634 -206 -132 -48 -388 -138 -570 -200 -545 -185 -846 -312 -1440 -605 -390
-192 -839 -444 -916 -513 -67 -60 -4 -76 181 -48 47 7 86 12 88 11 5 -4 -111
-85 -217 -151 -106 -67 -122 -84 -101 -109 12 -15 26 -17 90 -12 86 7 205 30
303 59 38 10 71 17 74 15 2 -3 -35 -33 -84 -68 -96 -69 -103 -75 -103 -101 0
-15 10 -18 68 -18 90 0 238 23 345 54 48 15 92 26 98 26 6 0 1 -16 -11 -35
-21 -34 -21 -37 -5 -54 35 -40 165 -31 356 24 66 19 122 35 125 35 2 0 -1 -12
-6 -26 -16 -42 -13 -121 6 -128 33 -13 263 30 402 76 35 11 65 18 67 17 2 -2
-1 -25 -7 -51 -19 -79 16 -95 155 -71 64 11 273 32 325 33 6 0 12 -11 12 -24
0 -14 10 -32 22 -40 32 -23 156 -21 248 3 l73 19 28 -20 29 -21 94 19 c94 20
95 20 98 1 6 -38 49 -58 124 -58 78 0 230 36 315 74 l56 25 17 -34 c25 -54 50
-60 145 -35 46 11 119 36 165 56 45 19 85 35 90 35 4 0 21 -13 36 -30 24 -26
35 -30 79 -30 61 0 179 23 272 52 l66 21 38 -42 c49 -54 112 -88 136 -73 14 9
31 0 95 -53 82 -68 110 -77 138 -46 18 19 20 18 102 -45 50 -37 94 -64 109
-64 13 0 44 16 69 35 26 19 51 35 57 35 6 0 34 -21 62 -46 96 -86 217 -126
272 -90 24 16 27 15 63 -7 64 -41 140 -77 163 -77 11 0 33 13 48 29 l27 29 60
-45 c65 -49 125 -83 148 -83 8 0 25 14 39 31 l24 31 64 -45 c152 -105 176
-112 242 -65 30 21 31 21 61 3 141 -85 190 -94 233 -41 l27 35 35 -28 c56 -44
163 -111 177 -111 7 0 29 14 49 31 l35 31 37 -30 c58 -45 82 -54 118 -48 50
10 80 -7 99 -54 26 -67 83 -302 111 -464 32 -183 34 -285 21 -1516 -9 -923 -7
-981 35 -1026 13 -13 27 -24 33 -24 6 0 27 -16 48 -37 35 -35 41 -36 140 -47
94 -10 108 -14 145 -43 40 -32 43 -33 143 -33 100 0 103 1 143 33 37 29 51 33
145 43 99 11 105 12 140 47 21 21 42 37 48 37 6 0 20 11 33 24 42 45 44 103
35 1026 -12 1118 -10 1331 11 1462 32 200 99 477 130 539 16 30 49 42 93 33
33 -7 58 4 115 48 l37 30 35 -31 c20 -17 42 -31 49 -31 14 0 121 67 177 111
l35 28 27 -35 c43 -53 92 -44 233 41 30 18 31 18 61 -3 66 -47 90 -40 242 65
l64 45 24 -31 c14 -17 31 -31 39 -31 23 0 83 34 148 83 l60 45 27 -29 c15 -16
37 -29 48 -29 23 0 99 36 163 77 36 22 39 23 63 7 55 -36 176 4 272 90 28 25
56 46 62 46 6 0 31 -16 57 -35 25 -19 56 -35 69 -35 15 0 59 27 109 64 82 63
84 64 102 45 28 -31 56 -22 138 46 64 53 81 62 95 53 24 -15 87 19 136 73 l38
42 66 -21 c93 -29 211 -52 272 -52 44 0 55 4 79 30 15 17 32 30 36 30 5 0 45
-16 90 -35 46 -20 119 -45 165 -56 95 -25 120 -19 145 35 l17 34 56 -25 c85
-38 237 -74 315 -74 75 0 118 20 124 58 3 19 4 19 98 -1 l94 -19 29 21 28 20
73 -19 c92 -24 216 -26 248 -3 12 8 22 26 22 40 0 13 6 24 13 24 51 -1 260
-22 324 -33 139 -24 174 -8 155 71 -6 26 -9 49 -7 51 2 1 32 -6 67 -17 139
-46 369 -89 402 -76 19 7 22 86 6 128 -5 14 -8 26 -6 26 3 0 60 -16 128 -36
95 -28 147 -38 228 -41 97 -5 106 -4 124 15 18 21 18 22 -4 57 -12 19 -17 35
-11 35 6 0 50 -11 98 -26 107 -31 255 -54 346 -54 57 0 67 3 67 18 0 26 -7 32
-103 101 -49 35 -86 65 -84 68 3 2 36 -5 74 -15 98 -29 217 -52 303 -59 62 -5
78 -3 89 11 21 26 7 42 -90 103 -113 72 -232 154 -227 157 2 2 41 -3 88 -10
185 -28 248 -12 181 48 -33 30 -291 185 -503 302 -277 153 -785 398 -1140 550
-230 98 -386 156 -798 296 -190 65 -430 149 -535 188 -266 98 -597 202 -644
202 -10 0 -71 27 -136 60 -264 133 -366 155 -730 155 -208 0 -280 -4 -360 -19
-119 -21 -329 -89 -630 -201 -258 -97 -265 -99 -547 -164 -283 -65 -356 -74
-547 -68 -166 5 -266 25 -366 71 -48 22 -53 28 -118 148 -82 152 -99 197 -132
369 -50 250 -107 352 -273 489 -41 34 -72 70 -89 104 -30 61 -61 106 -72 106
-4 0 -15 -8 -23 -17z"/>
</g>
</svg>
