<?xml version="1.0" standalone="no"?>
<!DOCTYPE svg PUBLIC "-//W3C//DTD SVG 20010904//EN"
 "http://www.w3.org/TR/2001/REC-SVG-20010904/DTD/svg10.dtd">
<svg version="1.0" xmlns="http://www.w3.org/2000/svg"
 width="1536.000000pt" height="556.000000pt" viewBox="0 0 1536.000000 556.000000"
 preserveAspectRatio="xMidYMid meet">
<metadata>
Created by potrace 1.16, written by Peter Selinger 2001-2019
</metadata>
<g transform="translate(0.000000,556.000000) scale(0.100000,-0.100000)"
fill="#000000" stroke="none">
<path d="M7656 5538 c-8 -13 -20 -36 -27 -53 -8 -16 -49 -69 -94 -116 -70 -75
-94 -112 -190 -290 -60 -112 -130 -253 -155 -314 l-45 -110 -85 -42 c-187 -92
-304 -114 -540 -101 -262 14 -509 82 -775 213 -233 114 -368 195 -503 300
-234 182 -271 207 -357 250 -49 24 -128 54 -175 67 -159 43 -401 21 -650 -57
-170 -53 -262 -75 -722 -170 -230 -47 -452 -97 -495 -111 -43 -14 -195 -81
-339 -149 -143 -68 -321 -144 -395 -170 -484 -169 -1002 -408 -1294 -597 -251
-163 -468 -312 -479 -330 -16 -27 4 -51 50 -61 45 -9 239 7 328 27 69 16 70
18 -69 -74 -238 -159 -501 -356 -597 -449 -55 -52 -61 -82 -23 -107 21 -14 41
-15 118 -9 195 15 312 49 533 155 79 38 144 67 144 66 0 -2 -51 -42 -112 -89
-196 -148 -302 -242 -414 -366 -126 -140 -128 -144 -114 -171 14 -26 62 -26
163 -1 143 37 317 117 522 242 109 65 199 119 201 119 2 0 -62 -61 -141 -136
-263 -247 -455 -466 -455 -519 0 -77 250 -9 483 131 93 56 360 225 470 298 15
10 27 16 27 13 0 -3 -56 -77 -125 -164 -79 -99 -125 -165 -123 -177 6 -36 49
-57 119 -57 78 0 188 36 367 121 l122 59 0 -29 c0 -19 7 -33 21 -40 60 -33
273 10 382 76 54 34 59 35 76 20 49 -45 193 -27 316 38 73 39 83 42 118 33 54
-13 149 12 260 67 l88 45 103 -6 c98 -6 106 -4 149 19 41 23 50 25 91 15 53
-12 142 1 201 29 32 15 43 15 90 4 30 -7 71 -10 95 -6 35 5 47 2 86 -25 71
-49 104 -53 175 -25 11 5 23 -5 42 -32 40 -62 84 -84 159 -81 59 3 65 1 95
-29 25 -25 39 -32 70 -31 21 0 47 4 58 8 16 7 30 -1 64 -32 43 -39 44 -40 102
-33 57 5 59 5 102 -32 63 -55 99 -68 146 -53 50 15 42 17 101 -33 84 -72 147
-92 213 -67 21 8 29 4 58 -26 44 -45 79 -63 126 -63 27 0 52 -10 87 -35 28
-19 75 -42 105 -51 31 -9 88 -32 128 -51 63 -32 78 -35 129 -31 49 4 68 1 121
-24 69 -32 138 -40 177 -18 20 10 35 9 88 -4 98 -24 135 -22 165 13 l26 29 51
-24 c68 -32 112 -31 147 2 l27 26 40 -21 c58 -30 77 -27 112 18 l32 39 55 -29
c66 -35 84 -36 156 -8 52 20 56 20 87 4 25 -13 31 -21 26 -38 -4 -12 -15 -65
-26 -117 -32 -156 -134 -539 -208 -785 -133 -440 -190 -779 -146 -871 21 -45
69 -84 102 -84 19 0 41 -16 80 -57 93 -98 134 -113 200 -73 l34 21 34 -30 c41
-36 85 -46 174 -37 64 6 69 4 104 -23 103 -82 257 -80 359 5 26 22 35 23 97
18 89 -9 133 1 174 37 l34 30 34 -21 c66 -40 107 -25 200 73 39 41 61 57 80
57 33 0 81 39 102 84 44 92 -13 431 -146 871 -77 254 -175 626 -207 780 -11
55 -23 110 -27 122 -5 17 1 25 26 38 31 16 35 16 87 -4 72 -28 90 -27 156 8
l55 29 32 -39 c35 -45 54 -48 112 -18 l40 21 27 -26 c35 -33 79 -34 147 -2
l51 24 26 -29 c30 -35 67 -37 165 -13 53 13 68 14 88 4 39 -22 108 -14 177 18
53 25 72 28 121 24 51 -4 66 -1 129 31 40 19 97 42 128 51 30 9 77 32 105 51
35 25 60 35 87 35 47 0 82 18 126 63 29 30 37 34 58 26 66 -25 129 -5 213 67
59 50 51 48 101 33 47 -15 83 -2 146 53 43 37 45 37 102 32 58 -7 59 -6 102
33 34 31 48 39 64 32 11 -4 37 -8 58 -8 31 -1 45 6 70 31 30 30 36 32 95 29
54 -2 70 1 102 23 21 13 48 41 60 61 16 26 27 34 39 30 71 -29 104 -25 175 24
39 27 51 30 86 25 24 -4 65 -1 95 6 47 11 58 11 90 -4 59 -28 148 -41 201 -29
41 10 50 8 91 -15 43 -23 51 -25 149 -19 l103 6 88 -45 c111 -55 206 -80 260
-67 35 9 45 6 118 -33 123 -65 267 -83 316 -38 17 15 22 14 76 -20 109 -66
322 -109 382 -76 14 7 21 21 21 40 l0 29 123 -59 c178 -85 288 -121 366 -121
70 0 113 21 119 57 2 12 -44 78 -123 177 -69 87 -125 161 -125 164 0 3 12 -3
28 -13 109 -73 376 -242 469 -298 233 -140 483 -208 483 -131 0 44 -122 189
-357 422 l-234 232 196 -119 c328 -198 648 -310 685 -239 15 27 9 35 -129 185
-107 117 -197 197 -401 354 -52 40 -99 77 -105 82 -5 5 55 -22 135 -60 233
-112 336 -142 537 -157 78 -6 97 -5 118 9 38 25 32 55 -22 108 -93 88 -373
298 -598 448 -139 92 -138 90 -69 74 89 -20 283 -36 328 -27 46 10 66 34 50
61 -32 50 -564 393 -789 508 -285 146 -613 286 -970 414 -88 32 -275 112 -415
178 -345 163 -310 153 -965 287 -307 62 -406 86 -634 154 -135 40 -365 75
-453 68 -133 -11 -295 -66 -413 -141 -33 -21 -121 -87 -195 -146 -74 -59 -162
-125 -195 -147 -118 -79 -434 -244 -570 -298 -92 -37 -305 -90 -438 -110 -154
-22 -372 -21 -467 4 -101 26 -288 109 -305 135 -7 11 -28 57 -45 101 -31 81
-194 393 -258 495 -19 30 -63 84 -97 120 -35 36 -77 89 -92 119 -33 63 -46 71
-67 39z"/>
</g>
</svg>
