<?xml version="1.0" standalone="no"?>
<!DOCTYPE svg PUBLIC "-//W3C//DTD SVG 20010904//EN"
 "http://www.w3.org/TR/2001/REC-SVG-20010904/DTD/svg10.dtd">
<svg version="1.0" xmlns="http://www.w3.org/2000/svg"
 width="1536.000000pt" height="818.000000pt" viewBox="0 0 1536.000000 818.000000"
 preserveAspectRatio="xMidYMid meet">
<metadata>
Created by potrace 1.16, written by Peter Selinger 2001-2019
</metadata>
<g transform="translate(0.000000,818.000000) scale(0.100000,-0.100000)"
fill="#000000" stroke="none">
<path d="M7647 8153 c-12 -15 -67 -72 -123 -128 -84 -84 -108 -115 -148 -192
-25 -51 -62 -140 -81 -198 -40 -123 -48 -139 -125 -260 -79 -125 -106 -181
-121 -253 l-13 -61 -71 -16 c-149 -33 -295 -47 -550 -52 -376 -8 -475 10
-1090 197 -341 103 -495 144 -610 160 -44 6 -91 13 -105 16 -14 2 -304 11
-645 19 -460 10 -668 19 -805 34 -271 28 -456 35 -590 22 -137 -14 -672 -120
-818 -162 -143 -41 -182 -62 -182 -98 0 -16 7 -34 15 -41 25 -21 17 -28 -37
-35 -87 -12 -363 -83 -521 -135 -254 -84 -407 -169 -407 -226 0 -63 212 -73
537 -26 76 12 161 23 188 26 59 6 70 10 -181 -65 -212 -64 -702 -235 -845
-295 -134 -57 -264 -140 -264 -169 0 -45 118 -69 305 -62 196 8 386 44 705
133 88 25 169 47 180 50 66 16 -254 -133 -510 -238 -273 -111 -696 -344 -726
-400 -18 -33 -2 -68 39 -86 57 -25 289 -22 402 6 164 40 482 148 770 261 84
33 156 59 157 57 5 -5 -244 -140 -406 -221 -74 -36 -218 -116 -320 -177 -378
-225 -401 -242 -401 -299 0 -67 116 -87 319 -54 89 15 379 105 561 176 47 18
146 63 220 101 83 43 123 59 105 43 -73 -61 -303 -231 -450 -332 -108 -74
-173 -126 -202 -161 -24 -29 -43 -57 -43 -61 0 -5 9 -19 19 -32 17 -22 27 -24
98 -23 99 1 184 25 426 120 104 41 191 74 193 74 2 0 4 -14 4 -30 0 -17 6 -43
14 -58 19 -37 75 -89 109 -101 58 -22 341 -6 419 24 10 4 21 -11 38 -51 30
-75 92 -139 148 -153 47 -13 78 -9 196 22 78 21 79 21 93 1 63 -89 90 -118
119 -130 45 -19 139 -18 191 2 l42 16 96 -80 c121 -101 149 -115 227 -110 l61
3 61 -74 c70 -84 90 -97 166 -107 50 -6 60 -12 115 -66 33 -33 79 -71 103 -85
38 -23 51 -25 105 -20 34 4 74 9 88 13 20 4 36 -4 80 -39 83 -68 114 -81 194
-81 56 -1 78 4 109 22 l39 23 36 -34 c53 -51 98 -71 162 -71 46 -1 65 5 108
31 l52 33 49 -25 c26 -13 74 -32 107 -41 l58 -16 78 31 c43 17 85 31 95 31 9
0 43 -13 74 -29 32 -16 82 -35 111 -41 48 -11 57 -10 116 14 80 32 94 32 167
0 95 -42 148 -43 233 -4 l72 33 64 -22 c58 -21 80 -23 207 -20 88 2 165 -2
200 -10 69 -14 103 -7 223 48 l81 38 34 -19 c59 -31 131 -24 211 19 38 20 71
34 74 31 3 -3 19 -95 35 -204 16 -110 41 -257 56 -329 20 -101 25 -147 21
-205 -6 -75 -97 -642 -327 -2035 -67 -401 -124 -769 -127 -818 -5 -77 -4 -90
13 -108 24 -26 67 -49 93 -49 10 0 43 -11 73 -25 29 -14 63 -25 75 -25 11 0
40 -16 63 -35 47 -39 122 -65 188 -65 35 0 54 -7 92 -35 65 -48 122 -66 200
-64 36 0 81 -2 101 -6 30 -6 48 -1 95 24 78 41 130 41 208 0 47 -25 65 -30 95
-24 20 4 65 6 101 6 78 -2 135 16 200 64 38 28 57 35 92 35 66 0 141 26 188
65 23 19 52 35 63 35 12 0 46 11 75 25 30 14 63 25 73 25 26 0 69 23 93 49 17
18 18 31 13 108 -3 49 -63 430 -132 848 -230 1392 -316 1929 -322 2005 -4 58
1 105 21 205 14 72 39 220 56 329 16 110 32 202 35 205 3 2 36 -12 74 -32 80
-43 152 -50 211 -19 l34 19 81 -38 c120 -55 154 -62 223 -48 35 8 112 12 200
10 127 -3 149 -1 207 20 l64 22 72 -33 c85 -39 138 -38 233 4 73 32 87 32 167
0 59 -24 68 -25 116 -14 29 6 79 25 111 41 31 16 65 29 74 29 10 0 52 -14 95
-31 l78 -31 58 16 c33 9 81 28 107 41 l49 25 52 -33 c90 -55 185 -41 270 40
l36 34 39 -23 c31 -18 53 -23 109 -22 80 0 120 17 200 84 39 33 54 40 75 36
14 -4 53 -9 87 -13 55 -5 67 -3 107 21 25 15 72 53 103 85 53 53 63 59 113 65
76 10 96 23 166 107 l61 74 61 -3 c78 -5 106 9 227 110 l96 80 42 -16 c52 -20
146 -21 191 -2 29 12 56 42 119 130 13 19 16 18 120 -8 117 -30 160 -29 215 4
39 24 85 87 108 146 12 32 21 43 32 39 78 -30 361 -46 419 -24 34 12 90 64
109 101 8 15 14 41 14 58 0 16 2 30 4 30 2 0 89 -33 193 -74 335 -132 485
-157 529 -90 16 23 15 26 -12 65 -37 54 -103 108 -244 201 -109 72 -330 234
-416 306 -32 27 -15 21 99 -37 162 -82 235 -111 493 -197 205 -68 331 -94 459
-94 100 0 145 22 145 71 0 40 -40 80 -140 141 -254 154 -464 275 -581 333
-161 81 -411 216 -406 221 1 2 101 -35 221 -81 246 -95 568 -204 701 -236 118
-29 349 -33 407 -7 41 18 57 53 39 86 -30 56 -454 290 -726 400 -252 103 -577
254 -510 238 11 -3 92 -25 180 -50 319 -89 509 -125 705 -133 180 -7 300 16
308 59 7 37 -186 147 -393 224 -208 77 -626 217 -775 260 -85 25 -159 47 -165
49 -14 6 69 -3 228 -27 325 -47 537 -37 537 26 0 74 -236 184 -625 291 -89 24
-206 52 -259 62 -53 9 -96 20 -96 24 0 3 7 12 15 19 8 7 15 25 15 41 0 36 -38
57 -183 99 -143 41 -678 147 -817 161 -135 13 -323 6 -584 -22 -137 -15 -334
-23 -806 -34 -344 -8 -636 -17 -650 -19 -14 -3 -61 -10 -105 -16 -116 -17
-271 -57 -610 -160 -616 -187 -714 -205 -1090 -197 -255 5 -401 19 -550 52
l-71 16 -13 61 c-15 72 -42 128 -121 253 -77 121 -85 137 -125 260 -19 58 -56
147 -82 198 -41 80 -63 108 -174 220 -70 70 -130 127 -133 127 -3 0 -16 -12
-29 -27z"/>
</g>
</svg>
