<?xml version="1.0" standalone="no"?>
<!DOCTYPE svg PUBLIC "-//W3C//DTD SVG 20010904//EN"
 "http://www.w3.org/TR/2001/REC-SVG-20010904/DTD/svg10.dtd">
<svg version="1.0" xmlns="http://www.w3.org/2000/svg"
 width="1536.000000pt" height="715.000000pt" viewBox="0 0 1536.000000 715.000000"
 preserveAspectRatio="xMidYMid meet">
<metadata>
Created by potrace 1.16, written by Peter Selinger 2001-2019
</metadata>
<g transform="translate(0.000000,715.000000) scale(0.100000,-0.100000)"
fill="#000000" stroke="none">
<path d="M7652 7113 c-10 -21 -29 -64 -42 -96 -19 -50 -33 -66 -89 -108 -128
-95 -204 -220 -246 -405 -72 -317 -140 -566 -169 -622 -34 -66 -171 -143 -286
-161 -96 -16 -386 -13 -535 4 -270 31 -975 161 -1122 206 -38 12 -169 61 -292
111 -323 129 -318 128 -741 139 -534 15 -1410 7 -1580 -15 -328 -42 -748 -107
-900 -140 -296 -64 -580 -150 -580 -176 0 -18 79 -75 145 -106 42 -19 64 -35
55 -38 -8 -2 -67 -14 -130 -26 -344 -63 -474 -98 -700 -187 -118 -47 -160 -69
-160 -84 0 -15 49 -41 133 -73 l82 -30 275 -6 c270 -5 274 -5 230 -22 -25 -9
-174 -61 -332 -116 -353 -124 -434 -156 -537 -218 -199 -118 -169 -159 114
-158 168 0 320 16 422 43 112 31 262 63 274 59 7 -2 -71 -37 -172 -77 -205
-81 -511 -228 -607 -292 -35 -23 -86 -63 -115 -89 -44 -41 -50 -50 -39 -63 8
-9 38 -21 67 -28 123 -27 441 28 929 160 61 16 103 24 95 17 -8 -7 -79 -50
-159 -96 -287 -164 -563 -359 -594 -419 -18 -35 -11 -43 49 -60 69 -19 126
-13 403 44 149 30 275 55 281 55 8 0 9 -5 1 -19 -5 -11 -10 -34 -10 -51 0 -27
6 -34 43 -50 107 -47 307 -47 491 0 86 22 96 19 96 -27 0 -60 111 -107 250
-108 52 0 116 4 142 9 46 8 48 7 59 -20 15 -42 56 -92 87 -108 37 -19 143 -28
227 -19 l70 8 20 -55 c29 -79 64 -100 169 -100 45 0 109 7 141 15 45 12 61 13
64 4 7 -22 75 -90 105 -106 38 -20 110 -19 183 2 30 9 56 15 57 13 1 -2 10
-24 20 -49 20 -55 76 -114 121 -129 25 -8 49 -7 100 5 83 19 85 19 85 -3 0
-29 66 -98 116 -122 40 -20 56 -22 125 -16 l78 6 38 -33 c90 -81 166 -95 265
-50 l59 26 46 -52 c25 -28 71 -70 104 -91 69 -48 110 -51 185 -16 l52 24 38
-39 c42 -43 107 -79 144 -79 45 0 122 29 162 62 l28 22 27 -26 c43 -40 111
-70 172 -75 l56 -5 66 61 66 60 28 -29 c35 -36 131 -79 192 -86 46 -6 50 -4
97 40 l48 46 42 -24 c51 -30 138 -56 186 -56 29 0 44 8 79 44 l44 45 39 -20
c22 -11 78 -28 126 -39 81 -17 89 -17 115 -2 15 9 39 33 53 53 l25 37 60 -19
c72 -22 157 -25 184 -5 16 12 25 12 60 -1 38 -13 119 -19 175 -11 23 3 28 -5
78 -127 l53 -130 -5 -90 c-3 -49 -13 -205 -21 -345 -14 -249 -26 -399 -45
-610 -39 -424 -9 -1283 48 -1359 10 -14 33 -36 51 -48 48 -32 181 -85 229 -91
23 -2 45 -9 48 -13 3 -5 32 -9 64 -9 46 0 67 -5 96 -25 66 -45 142 -45 208 0
29 20 50 25 96 25 32 0 61 4 64 9 3 4 25 11 48 13 48 6 181 59 229 91 60 41
69 63 84 208 30 279 38 481 31 784 -4 165 -11 347 -16 405 -22 262 -31 382
-45 615 -8 138 -17 293 -20 345 l-6 95 53 130 c50 122 55 130 78 127 56 -8
137 -2 175 11 35 13 44 13 60 1 27 -20 112 -17 184 5 l60 19 25 -37 c14 -20
38 -44 53 -53 26 -15 34 -15 115 2 48 11 104 28 126 39 l39 20 44 -45 c35 -36
50 -44 79 -44 48 0 135 26 186 56 l42 24 48 -46 c47 -44 51 -46 97 -40 61 7
157 50 192 86 l28 29 66 -60 66 -61 56 5 c60 5 117 30 168 73 l32 27 27 -22
c40 -32 117 -61 162 -61 37 0 102 36 144 79 l38 39 52 -24 c75 -35 116 -32
185 16 33 21 79 63 104 91 l46 52 59 -26 c99 -45 172 -31 266 50 40 33 40 33
117 27 67 -6 83 -4 123 16 50 24 116 93 116 122 0 22 2 22 85 3 52 -12 74 -13
100 -5 44 15 111 88 126 139 7 23 15 41 18 41 3 0 29 -7 56 -15 68 -21 143
-22 181 -2 30 16 98 84 105 106 3 9 19 8 64 -4 32 -8 96 -15 141 -15 105 0
140 21 169 100 l20 55 70 -8 c84 -9 190 0 227 19 31 16 72 66 87 108 11 27 13
28 59 20 26 -5 90 -9 142 -9 139 1 250 48 250 108 0 46 10 49 96 27 184 -47
384 -47 492 0 36 16 42 23 42 50 0 17 -5 40 -10 51 -8 14 -7 19 1 19 6 0 132
-25 281 -55 277 -57 334 -63 403 -44 60 16 67 26 50 59 -32 61 -311 259 -595
421 -173 98 -196 116 -125 95 121 -36 528 -135 614 -150 178 -30 317 -40 376
-27 80 18 87 33 39 82 -21 22 -73 63 -114 91 -87 58 -411 219 -550 272 -155
60 -250 101 -240 104 11 4 166 -30 273 -59 102 -27 254 -43 422 -43 216 -1
279 22 221 83 -34 36 -164 112 -257 152 -41 17 -222 83 -404 146 -181 64 -337
119 -345 124 -9 5 94 9 242 9 l258 0 92 30 c103 33 162 64 155 83 -9 29 -223
114 -456 181 -64 19 -209 51 -321 71 -113 21 -209 40 -214 42 -5 3 23 20 61
38 64 30 143 87 143 105 0 30 -353 133 -665 194 -127 25 -547 88 -815 122
-170 22 -1048 30 -1580 15 -423 -11 -418 -10 -741 -139 -123 -50 -254 -99
-292 -111 -147 -45 -852 -175 -1122 -206 -149 -17 -439 -20 -535 -4 -115 18
-252 95 -286 161 -29 56 -97 305 -169 622 -42 185 -114 303 -243 402 -62 48
-69 58 -107 144 -22 52 -45 95 -52 97 -7 3 -20 -13 -31 -34z"/>
</g>
</svg>
