<?xml version="1.0" standalone="no"?>
<!DOCTYPE svg PUBLIC "-//W3C//DTD SVG 20010904//EN"
 "http://www.w3.org/TR/2001/REC-SVG-20010904/DTD/svg10.dtd">
<svg version="1.0" xmlns="http://www.w3.org/2000/svg"
 width="1536.000000pt" height="598.000000pt" viewBox="0 0 1536.000000 598.000000"
 preserveAspectRatio="xMidYMid meet">
<metadata>
Created by potrace 1.16, written by Peter Selinger 2001-2019
</metadata>
<g transform="translate(0.000000,598.000000) scale(0.100000,-0.100000)"
fill="#000000" stroke="none">
<path d="M1040 5960 c-11 -11 -20 -30 -20 -42 0 -36 78 -97 210 -162 139 -68
256 -110 530 -186 102 -28 190 -56 195 -62 7 -7 -139 -8 -470 -2 -766 14
-1073 12 -1179 -10 -110 -21 -151 -38 -166 -66 -10 -18 -8 -25 7 -42 40 -45
195 -102 361 -132 103 -20 618 -41 797 -33 137 6 142 2 42 -32 -56 -19 -125
-33 -542 -111 -148 -28 -326 -62 -395 -76 -140 -30 -353 -95 -387 -119 -50
-35 -8 -100 80 -127 81 -25 390 -15 677 21 236 30 522 51 510 38 -9 -10 -184
-65 -336 -106 -209 -56 -344 -104 -612 -220 -265 -114 -292 -130 -292 -171 0
-50 45 -77 145 -85 151 -13 265 5 725 116 161 38 240 52 315 55 l100 5 -70
-37 c-38 -20 -115 -57 -170 -82 -187 -83 -340 -164 -470 -249 -216 -142 -240
-167 -195 -208 16 -15 31 -17 83 -12 86 8 458 82 593 118 105 28 154 35 154
24 0 -3 -14 -24 -30 -47 -60 -83 -26 -122 120 -138 69 -8 125 -8 210 1 196 20
182 24 200 -44 8 -32 25 -68 36 -81 39 -39 121 -57 293 -63 l158 -6 13 -35
c15 -42 73 -108 114 -129 35 -18 145 -22 253 -10 l71 9 17 -36 c40 -84 109
-112 270 -109 l111 2 19 -30 c11 -16 47 -43 80 -61 54 -30 68 -33 143 -33 l83
0 16 -33 c8 -18 32 -46 51 -63 l36 -32 97 6 97 5 38 -56 c55 -79 74 -87 229
-89 l130 -1 38 -51 c51 -69 63 -74 176 -69 l96 5 43 -44 c59 -61 93 -73 207
-73 l96 0 51 -41 52 -41 86 4 c83 3 87 2 130 -29 50 -37 63 -39 145 -18 l58
16 68 -36 c79 -41 97 -43 174 -11 l58 24 61 -29 c34 -16 74 -29 89 -29 34 0
83 24 120 58 l27 26 28 -27 c33 -32 108 -66 144 -67 22 0 55 20 134 81 6 5 30
-6 59 -26 62 -45 95 -45 169 0 32 19 62 35 66 35 4 0 22 -7 40 -16 47 -24 76
-20 126 15 40 28 52 31 115 31 45 0 84 6 105 16 32 15 37 15 88 -6 84 -34 90
-44 94 -170 4 -105 3 -114 -36 -237 -23 -70 -53 -171 -67 -223 -14 -52 -41
-142 -60 -200 -19 -58 -54 -179 -79 -270 -25 -91 -85 -275 -134 -410 -49 -135
-113 -316 -141 -402 -46 -141 -51 -165 -51 -246 0 -82 2 -92 30 -134 66 -100
133 -129 269 -116 92 8 95 8 125 -17 146 -120 143 -119 251 -95 35 8 48 5 99
-20 46 -24 72 -30 121 -30 34 0 76 5 93 11 25 9 36 7 58 -8 23 -15 49 -18 144
-18 95 0 121 3 144 18 22 15 33 17 58 8 17 -6 59 -11 93 -11 49 0 75 6 121 30
51 25 64 28 99 20 108 -24 105 -25 251 95 30 24 34 25 122 17 115 -10 164 3
221 58 71 69 81 93 81 195 0 84 -4 102 -64 280 -35 105 -101 291 -145 414 -45
123 -100 292 -122 375 -22 83 -49 175 -60 205 -11 29 -40 126 -65 215 -25 88
-59 204 -76 256 -35 109 -48 266 -29 336 10 39 16 44 77 70 63 27 66 27 94 11
20 -12 51 -17 104 -17 68 0 80 -3 120 -31 50 -36 77 -39 128 -15 35 17 36 17
100 -18 83 -46 114 -46 173 -1 l46 36 61 -46 c36 -27 70 -45 86 -45 35 1 99
30 140 65 l33 28 27 -26 c36 -34 85 -57 119 -57 15 0 55 13 89 29 l61 29 58
-24 c77 -32 95 -30 174 11 l68 36 58 -16 c82 -21 95 -19 145 18 43 31 47 32
130 29 l86 -4 52 41 51 41 96 0 c114 0 148 12 207 73 l43 44 97 -5 c124 -6
131 -2 204 116 1 2 62 4 136 5 159 2 178 10 231 89 l37 56 98 -5 c95 -6 98 -5
130 22 18 15 41 44 51 64 l19 36 84 0 c75 0 89 3 143 33 33 18 69 45 80 61
l19 30 111 -2 c69 -1 127 3 155 12 51 15 120 80 120 113 0 20 3 20 78 12 114
-13 223 -9 258 9 41 21 99 87 114 129 l13 35 157 6 c158 6 244 22 284 52 11 8
29 45 42 82 25 79 6 74 199 54 89 -8 146 -9 215 -1 146 16 180 54 121 135 -17
24 -31 46 -31 49 0 12 47 5 154 -23 135 -36 507 -110 593 -118 52 -5 67 -3 83
12 44 40 21 65 -170 192 -148 98 -262 160 -451 246 -90 41 -191 88 -224 105
l-60 31 73 1 c71 0 168 -18 422 -79 379 -91 542 -113 674 -93 76 12 116 39
116 79 0 34 -41 67 -126 103 -41 17 -150 64 -242 104 -180 79 -385 150 -552
192 -107 26 -311 91 -320 101 -11 13 281 -9 510 -38 510 -64 739 -48 775 55 8
24 6 31 -14 47 -22 18 -180 73 -296 103 -66 17 -521 104 -740 142 -151 26
-311 66 -350 86 -20 11 32 13 298 15 375 2 555 14 687 47 466 117 338 246
-245 246 -93 0 -350 -5 -570 -11 -220 -5 -476 -9 -570 -7 l-170 3 85 27 c47
15 153 46 235 68 179 49 308 97 430 157 160 79 220 137 197 187 -20 45 -74 44
-293 -8 -107 -25 -390 -84 -629 -132 -414 -81 -1058 -217 -1181 -249 -44 -12
-64 -13 -86 -4 -53 20 -240 23 -363 4 -347 -51 -679 -130 -1045 -246 -272 -87
-471 -144 -635 -183 -58 -14 -229 -54 -380 -90 -336 -80 -487 -112 -785 -167
-218 -41 -240 -43 -415 -44 -102 0 -206 4 -232 8 -65 11 -103 46 -122 110 -9
29 -33 84 -54 123 -20 38 -67 129 -105 201 -60 116 -75 138 -138 195 -39 34
-98 90 -131 123 l-59 60 -42 -47 c-23 -25 -69 -67 -102 -93 -79 -61 -116 -109
-181 -235 -30 -58 -74 -143 -99 -190 -25 -47 -52 -108 -61 -137 -19 -64 -57
-99 -122 -110 -26 -4 -130 -8 -232 -8 -175 1 -198 3 -411 43 -306 57 -452 89
-804 171 -483 114 -614 149 -910 243 -428 136 -782 221 -1135 273 -123 19
-310 16 -363 -4 -22 -9 -45 -7 -105 8 -129 33 -904 196 -1312 276 -212 42
-448 92 -524 111 -162 40 -208 42 -236 14z"/>
</g>
</svg>
