<?xml version="1.0" standalone="no"?>
<!DOCTYPE svg PUBLIC "-//W3C//DTD SVG 20010904//EN"
 "http://www.w3.org/TR/2001/REC-SVG-20010904/DTD/svg10.dtd">
<svg version="1.0" xmlns="http://www.w3.org/2000/svg"
 width="1410.000000pt" height="1249.000000pt" viewBox="0 0 1410.000000 1249.000000"
 preserveAspectRatio="xMidYMid meet">
<metadata>
Created by potrace 1.16, written by Peter Selinger 2001-2019
</metadata>
<g transform="translate(0.000000,1249.000000) scale(0.100000,-0.100000)"
fill="#000000" stroke="none">
<path d="M11545 12459 c-91 -9 -188 -25 -395 -65 -137 -26 -162 -27 -440 -29
-288 -1 -442 -13 -701 -54 -35 -6 -135 -20 -223 -31 -189 -24 -510 -86 -731
-141 -388 -97 -977 -330 -1459 -577 -189 -97 -278 -149 -560 -324 -77 -48
-235 -159 -320 -225 -22 -18 -92 -66 -153 -108 -62 -41 -147 -104 -190 -138
-193 -157 -273 -209 -427 -277 -83 -37 -216 -98 -296 -135 -80 -37 -179 -80
-220 -95 -66 -25 -103 -41 -249 -107 -143 -65 -281 -137 -310 -162 -27 -24
-32 -34 -27 -55 7 -29 53 -42 111 -32 19 4 35 5 35 2 0 -3 -34 -24 -75 -47
-90 -49 -108 -74 -75 -101 25 -20 48 -22 100 -9 61 16 143 24 136 13 -3 -5
-49 -36 -101 -68 -95 -57 -121 -83 -111 -109 6 -16 -25 -40 -92 -74 -24 -12
-105 -66 -180 -119 -218 -154 -527 -357 -567 -372 -14 -5 -52 -27 -83 -48 -31
-22 -93 -61 -137 -89 -44 -27 -118 -74 -165 -104 -47 -29 -166 -95 -265 -146
-427 -218 -1368 -684 -1460 -723 -55 -23 -139 -62 -188 -86 -48 -24 -121 -58
-162 -74 -42 -17 -106 -45 -143 -64 -37 -19 -117 -55 -177 -81 -61 -26 -191
-84 -290 -130 -99 -46 -241 -111 -315 -145 -74 -34 -162 -76 -195 -95 -63 -35
-245 -171 -245 -183 0 -4 -29 -41 -65 -82 -36 -41 -68 -86 -72 -99 -3 -14 -18
-35 -32 -47 -22 -19 -23 -24 -12 -38 8 -9 19 -15 25 -14 6 1 37 -8 69 -20 37
-14 80 -22 118 -22 54 0 60 -2 54 -17 -17 -41 -16 -64 4 -97 12 -19 31 -38 43
-42 50 -15 140 -5 298 36 91 23 208 52 260 65 90 21 234 65 400 122 284 98
379 128 485 154 66 16 140 35 165 43 25 8 117 37 205 65 88 27 230 71 315 96
85 26 200 62 255 80 55 18 140 43 190 55 95 22 550 155 649 189 l59 21 -7 -39
c-4 -30 -19 -53 -59 -93 -44 -43 -69 -85 -139 -228 -127 -260 -150 -316 -156
-384 -4 -50 -12 -70 -42 -111 -55 -73 -81 -130 -95 -209 -7 -39 -18 -94 -25
-123 -8 -38 -8 -62 0 -92 14 -52 -8 -142 -43 -180 -14 -14 -35 -42 -48 -62
-13 -20 -36 -54 -51 -75 -18 -26 -40 -90 -67 -194 l-41 -155 -78 -75 c-135
-130 -355 -447 -395 -569 -32 -100 -17 -158 39 -149 111 21 227 64 414 157
255 126 346 179 532 312 81 57 182 126 225 153 43 28 215 140 383 251 168 111
343 225 390 255 224 139 454 303 580 410 30 26 147 114 260 195 187 134 282
209 595 465 294 241 458 373 554 449 58 46 126 102 151 125 64 59 205 175 275
226 33 24 80 63 105 86 57 53 239 191 306 232 58 36 179 67 414 108 215 36
389 93 446 146 l21 19 7 -38 c3 -21 6 -52 6 -68 0 -22 11 -43 40 -73 37 -38
46 -42 88 -42 25 0 66 -7 89 -16 37 -14 43 -21 48 -53 26 -154 35 -186 65
-213 17 -16 38 -28 48 -28 9 0 71 -23 137 -51 66 -28 143 -60 172 -71 l52 -21
-6 -91 -6 -91 35 -45 c40 -53 92 -90 125 -90 29 0 149 -39 254 -83 l77 -32 6
-44 c3 -24 6 -59 6 -77 0 -18 5 -45 12 -59 12 -26 84 -77 127 -90 14 -4 38
-16 55 -26 17 -11 39 -19 49 -19 11 0 30 -9 44 -20 16 -12 41 -20 66 -20 36 0
39 -2 32 -22 -63 -198 -100 -618 -59 -676 21 -31 88 -61 192 -86 86 -21 87
-22 86 -51 -1 -17 -15 -82 -32 -145 -17 -66 -35 -168 -41 -239 -11 -124 -11
-125 13 -175 14 -28 43 -73 65 -99 31 -37 39 -55 36 -75 -3 -15 -21 -114 -41
-221 -33 -176 -36 -208 -32 -327 3 -126 5 -133 33 -173 26 -39 64 -75 85 -83
4 -2 0 -70 -10 -153 -11 -82 -22 -202 -26 -265 -8 -137 5 -197 62 -281 44 -66
104 -190 104 -216 0 -10 -7 -43 -16 -73 -27 -96 -17 -550 17 -717 12 -59 87
-172 121 -181 14 -3 18 -11 14 -26 -16 -64 -39 -287 -40 -391 -1 -160 16 -216
88 -291 57 -59 79 -65 120 -33 24 19 26 19 26 2 0 -10 -12 -54 -27 -98 -24
-73 -27 -97 -31 -272 -5 -226 11 -353 58 -470 17 -41 30 -85 30 -98 0 -13 4
-26 9 -29 5 -3 -7 -54 -28 -113 -34 -103 -36 -114 -36 -243 0 -121 3 -144 29
-223 30 -92 60 -133 118 -163 23 -12 32 -13 44 -3 8 7 13 17 11 23 -2 6 10 20
26 31 18 11 52 59 81 112 50 90 155 248 160 241 2 -1 -1 -46 -6 -98 -13 -124
-3 -378 15 -422 8 -18 21 -39 30 -47 39 -32 185 159 385 502 31 55 98 161 148
237 50 76 94 150 98 165 5 21 9 24 26 15 42 -23 118 -1 141 41 6 11 25 37 44
57 64 72 162 229 237 382 112 227 235 501 273 610 36 101 109 292 144 375 11
28 50 129 86 225 36 96 81 211 99 255 19 44 61 163 94 265 34 102 86 262 118
355 31 94 73 226 94 295 21 69 74 233 118 365 140 416 233 706 262 815 101
386 145 550 180 660 21 69 48 163 60 210 12 47 41 152 65 235 52 179 90 325
155 580 26 105 59 231 73 280 14 50 36 137 51 195 14 58 43 171 65 251 21 81
44 193 50 250 6 57 18 140 26 184 28 160 43 436 50 964 6 426 -6 545 -70 716
-15 39 -30 79 -33 90 -35 101 -144 219 -292 317 -79 51 -403 208 -431 208 -7
0 -112 42 -233 94 -122 51 -230 97 -241 101 -18 6 -11 15 55 78 41 40 147 127
235 194 218 165 303 239 358 313 26 34 51 69 55 76 5 8 38 16 92 20 47 4 112
15 145 25 56 17 61 18 73 2 6 -9 12 -28 12 -42 0 -38 14 -54 39 -46 70 22 93
272 40 440 -23 75 -70 175 -100 214 -11 13 -19 34 -19 46 0 69 -176 278 -325
385 -145 104 -389 236 -524 281 -162 55 -460 114 -631 124 -58 4 -172 15 -254
26 -153 20 -334 23 -481 8z"/>
</g>
</svg>
