<?xml version="1.0" standalone="no"?>
<!DOCTYPE svg PUBLIC "-//W3C//DTD SVG 20010904//EN"
 "http://www.w3.org/TR/2001/REC-SVG-20010904/DTD/svg10.dtd">
<svg version="1.0" xmlns="http://www.w3.org/2000/svg"
 width="1536.000000pt" height="622.000000pt" viewBox="0 0 1536.000000 622.000000"
 preserveAspectRatio="xMidYMid meet">
<metadata>
Created by potrace 1.16, written by Peter Selinger 2001-2019
</metadata>
<g transform="translate(0.000000,622.000000) scale(0.100000,-0.100000)"
fill="#000000" stroke="none">
<path d="M7630 6158 c-18 -40 -49 -83 -85 -118 -82 -80 -108 -127 -176 -316
-44 -124 -65 -198 -76 -279 -9 -60 -21 -116 -26 -122 -14 -19 -321 -17 -477 2
-175 22 -597 91 -704 116 -49 12 -249 75 -445 141 -196 66 -399 130 -451 144
-221 57 -463 79 -817 71 -237 -5 -966 -39 -1108 -52 -33 -3 -186 -12 -340 -20
-362 -19 -781 -73 -1078 -140 -190 -43 -408 -107 -414 -122 -9 -23 17 -42 84
-63 56 -17 95 -20 292 -21 124 -1 217 -3 206 -6 -11 -3 -130 -31 -265 -63
-135 -33 -317 -75 -404 -95 -324 -75 -765 -204 -858 -251 -38 -19 -39 -61 -2
-70 54 -14 566 4 714 25 80 11 156 20 170 20 14 0 -166 -65 -400 -143 -479
-162 -627 -218 -810 -311 -139 -71 -170 -96 -154 -123 18 -29 74 -41 194 -41
198 -1 263 14 988 230 277 83 506 149 508 146 5 -5 -64 -37 -366 -167 -626
-271 -1201 -539 -1259 -587 -17 -14 -22 -25 -17 -41 11 -33 35 -41 152 -53
184 -19 287 6 689 163 127 50 273 106 325 124 98 36 286 87 300 82 5 -2 -44
-39 -108 -83 -148 -102 -608 -445 -733 -546 -102 -83 -129 -114 -129 -152 0
-44 22 -52 106 -38 134 22 340 94 623 215 84 36 157 66 161 66 5 0 12 -20 15
-44 10 -67 31 -80 131 -85 73 -3 95 1 191 32 59 19 162 52 228 72 66 21 132
43 146 50 l25 14 0 -72 -1 -72 40 -20 c24 -11 68 -21 108 -23 100 -6 298 22
378 53 13 5 18 -3 23 -34 10 -62 33 -72 131 -60 89 11 192 52 319 125 43 25
81 42 85 37 4 -4 20 -25 35 -46 47 -65 49 -65 271 2 l199 60 51 -51 c104 -107
164 -127 273 -89 l52 18 58 -46 c69 -55 188 -97 254 -88 34 5 41 2 60 -23 26
-35 115 -79 180 -90 27 -4 71 -3 98 3 47 9 54 7 136 -32 93 -44 129 -49 226
-30 53 11 55 10 102 -22 l48 -34 128 -1 c117 -1 132 -4 167 -25 33 -21 48 -24
113 -21 71 4 78 2 135 -32 61 -37 112 -56 155 -56 14 0 57 -12 95 -25 76 -27
180 -33 246 -15 30 8 45 7 83 -9 60 -26 171 -35 270 -23 76 10 80 10 118 -15
36 -24 44 -26 121 -20 45 4 92 9 105 13 19 6 22 3 22 -22 0 -50 -39 -292 -75
-469 -19 -93 -68 -291 -109 -440 -115 -416 -207 -687 -418 -1220 -145 -366
-246 -657 -255 -735 -10 -87 24 -92 159 -22 122 62 185 105 298 201 51 44 104
82 118 86 34 9 105 61 167 124 30 32 58 51 72 51 34 0 102 29 154 66 34 23 65
35 117 43 40 6 101 26 143 46 41 19 83 35 94 35 11 0 47 12 80 25 74 31 76 31
150 0 33 -13 69 -25 80 -25 11 0 53 -16 94 -35 42 -20 103 -40 143 -46 52 -8
83 -20 117 -43 52 -37 120 -66 154 -66 14 0 42 -19 72 -51 62 -63 133 -116
167 -124 15 -4 66 -41 115 -83 103 -89 221 -168 324 -217 115 -55 146 -47 136
35 -9 78 -110 369 -255 735 -272 689 -435 1205 -532 1686 -40 200 -78 454 -68
464 2 3 29 1 58 -5 91 -17 151 -13 191 14 34 23 39 24 115 14 99 -12 210 -3
270 23 38 16 53 17 83 9 66 -18 170 -12 246 15 39 13 81 25 95 25 43 0 94 19
155 56 57 34 64 36 135 32 65 -3 80 0 113 21 35 21 50 24 167 25 l128 1 48 34
c47 32 49 33 102 22 96 -19 133 -14 227 30 82 39 90 41 136 32 92 -19 231 25
277 86 19 26 26 29 60 24 66 -9 185 33 254 88 l58 46 52 -18 c109 -38 169 -18
273 89 l51 51 199 -60 c222 -67 224 -67 271 -2 15 21 31 42 35 46 4 5 42 -12
85 -37 127 -73 230 -114 319 -125 98 -12 121 -2 131 60 5 31 10 39 23 34 80
-31 278 -59 378 -53 40 2 84 12 108 23 l40 20 -1 72 0 72 25 -14 c14 -7 80
-29 146 -50 66 -20 169 -53 228 -72 96 -31 118 -35 191 -32 100 5 121 18 131
85 3 24 10 44 14 44 5 0 94 -36 197 -81 332 -142 639 -232 678 -200 21 17 20
55 -1 87 -9 14 -60 61 -112 103 -127 103 -587 445 -733 546 -64 44 -113 81
-108 83 14 5 206 -47 302 -82 51 -19 197 -74 324 -124 404 -158 504 -182 689
-163 114 12 155 28 155 61 0 27 -31 46 -245 152 -233 115 -456 216 -1000 453
-360 156 -406 177 -401 182 3 3 231 -63 508 -145 724 -217 790 -232 988 -231
120 0 176 12 194 41 17 27 -15 52 -163 127 -187 95 -310 141 -801 307 -234 78
-414 143 -400 143 14 0 90 -9 170 -20 149 -21 660 -39 715 -25 21 5 26 12 23
34 -3 24 -13 31 -87 60 -177 70 -534 169 -941 261 -96 22 -258 60 -360 85
l-185 45 225 1 c232 0 302 9 356 45 35 22 27 45 -21 62 -105 37 -449 116 -639
148 -332 55 -509 74 -810 90 -155 8 -308 17 -341 20 -142 13 -871 47 -1108 52
-355 8 -598 -14 -817 -71 -52 -14 -255 -79 -452 -144 -196 -66 -396 -129 -445
-141 -106 -25 -528 -94 -703 -116 -156 -19 -463 -21 -477 -2 -5 6 -17 62 -26
122 -11 81 -32 155 -76 279 -68 189 -94 236 -176 316 -36 35 -67 78 -85 118
-22 48 -34 62 -50 62 -16 0 -28 -14 -50 -62z"/>
</g>
</svg>
