<?xml version="1.0" standalone="no"?>
<!DOCTYPE svg PUBLIC "-//W3C//DTD SVG 20010904//EN"
 "http://www.w3.org/TR/2001/REC-SVG-20010904/DTD/svg10.dtd">
<svg version="1.0" xmlns="http://www.w3.org/2000/svg"
 width="1536.000000pt" height="567.000000pt" viewBox="0 0 1536.000000 567.000000"
 preserveAspectRatio="xMidYMid meet">
<metadata>
Created by potrace 1.16, written by Peter Selinger 2001-2019
</metadata>
<g transform="translate(0.000000,567.000000) scale(0.100000,-0.100000)"
fill="#000000" stroke="none">
<path d="M7640 5630 c-11 -22 -25 -40 -31 -40 -43 0 -262 -280 -356 -455 l-58
-109 -60 -13 c-111 -22 -307 -36 -430 -29 -489 28 -836 103 -1560 339 -477
156 -500 161 -1035 202 -250 19 -570 42 -710 50 -140 8 -385 27 -545 42 -273
26 -321 28 -815 28 -680 0 -933 -18 -992 -72 -40 -36 -9 -78 73 -99 29 -8 158
-30 288 -50 130 -20 240 -40 245 -44 12 -11 -39 -35 -102 -49 -30 -6 -129 -18
-220 -26 -276 -25 -702 -74 -782 -91 -146 -30 -341 -105 -392 -151 -38 -34
-13 -73 57 -92 97 -26 280 -12 750 59 143 21 305 44 360 50 55 6 112 13 128
15 18 3 27 0 27 -9 0 -35 -142 -91 -365 -145 -612 -146 -756 -187 -903 -256
-126 -60 -224 -138 -207 -165 18 -30 72 -44 160 -43 116 2 175 15 523 118 367
108 435 124 557 132 l100 6 -18 -21 c-21 -23 -87 -52 -272 -118 -390 -138
-672 -274 -851 -410 -85 -64 -106 -96 -80 -122 13 -14 34 -17 104 -16 149 3
391 64 624 158 239 96 578 199 596 181 8 -7 14 -3 -188 -115 -461 -255 -695
-407 -748 -488 -15 -24 -15 -25 11 -48 55 -47 132 -54 272 -25 150 32 254 70
384 138 89 47 122 61 117 48 -3 -10 -11 -48 -16 -84 -15 -105 7 -122 170 -136
115 -10 204 9 347 72 10 4 13 -11 13 -59 0 -84 31 -193 64 -227 25 -25 32 -26
149 -29 103 -3 133 0 182 16 33 12 60 20 61 19 55 -95 99 -150 132 -164 47
-20 143 -13 266 18 87 22 89 22 99 3 6 -10 37 -47 70 -81 l60 -63 73 0 c40 0
105 7 144 15 l72 15 49 -41 c52 -44 95 -58 169 -59 41 0 141 19 180 35 10 3
39 -13 78 -44 76 -61 142 -80 234 -65 l60 10 25 -40 c36 -58 72 -95 115 -117
46 -24 78 -24 148 1 30 11 58 19 61 20 3 0 20 -22 38 -49 46 -73 88 -95 159
-87 31 4 72 12 89 18 29 10 35 9 55 -9 32 -30 147 -83 181 -83 37 0 129 33
166 59 l30 21 56 -39 c92 -65 172 -73 255 -27 22 13 27 11 65 -19 75 -62 143
-71 225 -30 l48 25 47 -27 c41 -22 54 -25 103 -19 31 3 79 17 106 30 l48 24
46 -20 c25 -11 74 -23 109 -26 56 -4 67 -2 103 22 38 25 41 26 76 11 20 -8 63
-15 94 -15 49 0 64 5 90 26 29 25 34 26 70 14 70 -23 171 4 204 54 20 32 29
32 66 4 39 -28 109 -28 173 0 l47 21 0 -29 c0 -41 -31 -120 -66 -166 -16 -22
-79 -102 -139 -179 -61 -77 -197 -252 -302 -390 -105 -137 -259 -338 -342
-445 -275 -354 -351 -472 -351 -546 0 -55 20 -76 108 -116 114 -50 113 -49
137 -114 28 -74 65 -135 99 -162 31 -24 152 -55 218 -56 l46 -1 22 -52 c28
-67 98 -145 154 -173 25 -12 74 -24 113 -27 l69 -6 32 -62 c46 -88 94 -140
148 -161 41 -16 55 -16 135 -5 83 12 90 11 116 -7 86 -60 129 -73 284 -83 98
-7 200 -7 298 0 155 10 198 23 284 83 25 18 33 19 115 7 115 -16 157 -5 210
57 22 24 55 73 73 108 l33 63 69 6 c39 3 88 15 113 27 56 28 126 106 154 173
l22 52 51 1 c67 2 175 29 207 53 36 26 77 90 104 163 25 67 24 66 138 116 88
40 108 61 108 116 0 74 -76 192 -351 546 -83 107 -237 308 -342 445 -105 138
-241 313 -302 390 -60 77 -123 157 -139 179 -35 46 -66 125 -66 166 l0 29 47
-21 c64 -28 134 -28 173 0 37 28 46 28 66 -4 33 -50 134 -77 204 -54 36 12 41
11 70 -14 26 -21 41 -26 90 -26 31 0 74 7 94 15 35 15 38 14 76 -11 36 -24 47
-26 103 -22 35 3 84 15 109 26 l46 20 48 -24 c27 -13 75 -27 106 -30 49 -6 62
-3 103 19 l47 27 48 -25 c82 -41 150 -32 225 30 38 30 43 32 65 19 83 -46 163
-38 255 27 l56 39 30 -21 c49 -34 139 -62 182 -55 45 8 132 49 165 79 20 18
26 19 55 9 17 -6 58 -14 89 -18 71 -8 113 14 160 87 22 34 37 49 48 45 103
-34 131 -39 169 -27 52 15 96 53 137 116 l32 51 60 -10 c91 -15 158 4 234 65
39 31 68 47 78 44 39 -16 139 -35 180 -35 74 1 117 16 170 60 l50 42 69 -16
c39 -9 103 -16 144 -16 l74 0 60 63 c33 34 64 71 70 81 10 19 13 18 116 -7
112 -28 167 -32 232 -17 41 9 51 19 113 110 l38 56 59 -19 c48 -14 85 -17 182
-15 117 3 124 4 149 29 33 34 64 143 64 227 0 48 3 63 13 59 143 -63 232 -82
347 -72 163 14 185 31 170 136 -5 36 -13 74 -16 84 -5 13 28 -1 117 -48 167
-88 397 -157 519 -156 70 0 160 40 160 71 0 21 -91 103 -184 166 -117 80 -371
230 -601 356 -175 96 -171 94 -163 101 18 18 369 -91 653 -202 204 -80 429
-134 567 -137 70 -1 91 2 104 16 16 15 16 21 4 43 -16 30 -124 114 -225 176
-150 91 -493 241 -781 340 -131 45 -184 69 -205 95 -13 16 -8 17 86 11 114 -7
249 -39 605 -146 129 -39 269 -78 310 -86 104 -23 246 -24 287 -2 57 30 55 43
-20 105 -127 104 -357 181 -1002 332 -200 47 -327 87 -380 120 -43 27 -47 51
-7 45 15 -2 72 -9 127 -15 55 -6 217 -29 360 -50 470 -71 653 -85 750 -59 76
21 96 61 49 98 -61 48 -245 118 -381 145 -89 17 -523 68 -779 90 -94 9 -196
21 -225 27 -64 14 -115 38 -103 48 5 5 115 25 246 45 130 20 259 43 287 50 82
21 113 63 73 99 -59 54 -312 72 -992 72 -494 0 -542 -2 -815 -28 -159 -15
-405 -34 -545 -42 -140 -8 -460 -31 -710 -50 -532 -41 -562 -47 -1015 -195
-654 -214 -909 -278 -1280 -319 -337 -37 -539 -37 -730 2 l-60 13 -58 109
c-94 175 -313 455 -356 455 -6 0 -20 18 -31 40 -13 26 -27 40 -40 40 -13 0
-27 -14 -40 -40z"/>
</g>
</svg>
